<?xml version="1.0" standalone="no"?>
<!DOCTYPE svg PUBLIC "-//W3C//DTD SVG 20010904//EN"
 "http://www.w3.org/TR/2001/REC-SVG-20010904/DTD/svg10.dtd">
<svg version="1.0" xmlns="http://www.w3.org/2000/svg"
 width="300.000000pt" height="300.000000pt" viewBox="0 0 300.000000 300.000000"
 preserveAspectRatio="xMidYMid meet">
<metadata>
Created by potrace 1.11, written by Peter Selinger 2001-2013
</metadata>
<g transform="translate(0.000000,300.000000) scale(0.100000,-0.100000)"
fill="#000000" stroke="none">
<path d="M394 2271 c-2 -2 -4 -292 -4 -643 l0 -638 483 1 c265 0 494 0 510 -1
26 0 27 -2 27 -50 l0 -50 -260 0 c-253 0 -260 -1 -260 -20 0 -20 7 -20 364
-20 314 0 365 -2 370 -15 3 -8 3 -22 0 -30 -5 -13 32 -15 300 -15 l306 0 0
-30 c0 -24 4 -30 23 -31 28 -1 317 -1 337 0 14 1 16 36 16 271 l0 270 -47 0
-46 0 1 500 1 500 -35 1 c-128 3 -2082 3 -2086 0z m2057 -47 c15 -4 16 -52 17
-479 0 -405 -2 -475 -14 -475 -12 0 -14 40 -14 253 l0 252 -378 -2 c-207 -1
-391 -2 -407 -2 l-30 -1 0 -362 0 -363 -595 0 -595 0 0 585 c0 322 3 588 8
591 10 7 1984 10 2008 3z m-57 -724 l0 -225 -82 -3 c-55 -2 -82 -7 -83 -15 0
-7 -1 -104 -2 -217 l-2 -204 -255 -1 c-140 0 -264 1 -276 3 l-21 4 2 441 c1
243 3 442 3 443 1 0 163 0 359 0 l357 -1 0 -225z m164 -502 l2 -227 -142 2
-142 2 -1 205 c0 113 1 214 3 225 3 19 11 20 140 20 l137 0 3 -227z m-937 -20
c3 -5 5 -26 4 -46 l-1 -37 -62 -3 -62 -3 0 50 0 50 38 3 c44 4 75 -2 83 -14z"/>
</g>
</svg>
